<svg width="200" height="200" viewBox="0 0 200 200" fill="none" xmlns="http://www.w3.org/2000/svg">
<rect width="200" height="200" rx="8" fill="#007167"/>
<path d="M87.3128 50.88C87.3128 54.1667 86.1528 57.0087 83.8328 59.406C81.5128 61.7647 78.1294 63.466 73.6828 64.51C76.0801 65.1673 77.8974 66.25 79.1348 67.758C80.3721 69.2273 80.9908 70.9287 80.9908 72.862C80.9908 75.9167 80.0241 78.5653 78.0908 80.808C76.1961 83.0507 73.4121 84.7907 69.7387 86.028C66.0654 87.2267 61.6381 87.826 56.4568 87.826C54.5234 87.826 52.9768 87.768 51.8168 87.652C51.7781 88.7347 51.3141 89.5467 50.4248 90.088C49.5354 90.6293 48.3948 90.9 47.0028 90.9C45.6108 90.9 44.6441 90.5907 44.1028 89.972C43.6001 89.3533 43.3874 88.4447 43.4648 87.246C43.8128 81.8327 44.4894 76.168 45.4947 70.252C46.5001 64.2973 47.7761 58.5553 49.3228 53.026C49.5934 52.0593 50.1348 51.3827 50.9468 50.996C51.7588 50.6093 52.8221 50.416 54.1368 50.416C56.4954 50.416 57.6748 51.0733 57.6748 52.388C57.6748 52.9293 57.5588 53.548 57.3268 54.244C56.3214 57.26 55.3161 61.3587 54.3108 66.54C53.3054 71.6827 52.5901 76.5933 52.1648 81.272C54.0208 81.4267 55.5288 81.504 56.6888 81.504C62.1021 81.504 66.0654 80.7307 68.5788 79.184C71.1308 77.5987 72.4068 75.588 72.4068 73.152C72.4068 71.4507 71.6721 70.02 70.2028 68.86C68.7721 67.7 66.3554 67.062 62.9528 66.946C62.1794 66.9073 61.6381 66.714 61.3288 66.366C61.0194 66.018 60.8648 65.4573 60.8648 64.684C60.8648 63.5627 61.0968 62.654 61.5608 61.958C62.0248 61.262 62.8754 60.8947 64.1128 60.856C66.8581 60.7787 69.3328 60.3727 71.5368 59.638C73.7794 58.9033 75.5388 57.8787 76.8148 56.564C78.0908 55.2107 78.7288 53.6447 78.7288 51.866C78.7288 49.6233 77.6268 47.864 75.4228 46.588C73.2188 45.2733 69.8354 44.616 65.2728 44.616C61.1354 44.616 57.1334 45.1573 53.2668 46.24C49.4001 47.284 46.1134 48.618 43.4068 50.242C42.1694 50.9767 41.1254 51.344 40.2748 51.344C39.5788 51.344 39.0374 51.112 38.6508 50.648C38.3028 50.1453 38.1288 49.5267 38.1288 48.792C38.1288 47.8253 38.3221 46.994 38.7088 46.298C39.1341 45.602 40.1201 44.8093 41.6668 43.92C44.9148 42.064 48.7234 40.614 53.0928 39.57C57.4621 38.526 61.9281 38.004 66.4908 38.004C73.4894 38.004 78.7094 39.1833 82.1508 41.542C85.5921 43.9007 87.3128 47.0133 87.3128 50.88ZM115.268 70.194C115.771 70.194 116.158 70.4453 116.428 70.948C116.699 71.4507 116.834 72.0887 116.834 72.862C116.834 74.718 116.274 75.82 115.152 76.168C112.832 76.98 110.28 77.444 107.496 77.56C106.762 80.808 105.312 83.418 103.146 85.39C100.981 87.3233 98.5256 88.29 95.7803 88.29C93.4603 88.29 91.469 87.7293 89.8063 86.608C88.1823 85.4867 86.945 83.998 86.0943 82.142C85.2436 80.286 84.8183 78.2753 84.8183 76.11C84.8183 73.1713 85.379 70.5613 86.5003 68.28C87.6216 65.96 89.1683 64.162 91.1403 62.886C93.1123 61.5713 95.297 60.914 97.6943 60.914C100.633 60.914 102.992 61.9387 104.77 63.988C106.588 65.9987 107.651 68.4927 107.96 71.47C109.778 71.354 111.943 70.9673 114.456 70.31C114.766 70.2327 115.036 70.194 115.268 70.194ZM96.2443 82.142C97.4816 82.142 98.545 81.6393 99.4343 80.634C100.362 79.6287 100.981 78.1787 101.29 76.284C100.092 75.472 99.1636 74.4087 98.5063 73.094C97.8876 71.7793 97.5783 70.3873 97.5783 68.918C97.5783 68.2993 97.6363 67.6807 97.7523 67.062H97.4623C95.9156 67.062 94.6203 67.816 93.5763 69.324C92.571 70.7933 92.0683 72.8813 92.0683 75.588C92.0683 77.7147 92.4743 79.3387 93.2863 80.46C94.137 81.5813 95.123 82.142 96.2443 82.142ZM115.974 88.29C114.505 88.29 113.461 87.5167 112.842 85.97C112.262 84.4233 111.972 81.9487 111.972 78.546C111.972 73.5193 112.688 68.744 114.118 64.22C114.466 63.0987 115.027 62.2867 115.8 61.784C116.612 61.2427 117.734 60.972 119.164 60.972C119.938 60.972 120.479 61.0687 120.788 61.262C121.098 61.4553 121.252 61.8227 121.252 62.364C121.252 62.9827 120.962 64.3747 120.382 66.54C119.996 68.0867 119.686 69.44 119.454 70.6C119.222 71.76 119.029 73.1907 118.874 74.892C120.15 71.5667 121.581 68.86 123.166 66.772C124.752 64.684 126.298 63.1953 127.806 62.306C129.353 61.4167 130.764 60.972 132.04 60.972C134.554 60.972 135.81 62.2287 135.81 64.742C135.81 65.2447 135.636 66.4627 135.288 68.396C134.979 69.9427 134.824 70.9093 134.824 71.296C134.824 72.6493 135.308 73.326 136.274 73.326C137.357 73.326 138.749 72.4753 140.45 70.774C140.953 70.2713 141.475 70.02 142.016 70.02C142.519 70.02 142.906 70.252 143.176 70.716C143.486 71.1413 143.64 71.7213 143.64 72.456C143.64 73.8867 143.254 75.008 142.48 75.82C141.398 76.9413 140.122 77.908 138.652 78.72C137.222 79.4933 135.694 79.88 134.07 79.88C132.021 79.88 130.455 79.358 129.372 78.314C128.328 77.27 127.806 75.8587 127.806 74.08C127.806 73.5 127.864 72.92 127.98 72.34C128.058 71.5667 128.096 71.0447 128.096 70.774C128.096 70.1553 127.884 69.846 127.458 69.846C126.878 69.846 126.105 70.5033 125.138 71.818C124.21 73.094 123.282 74.7953 122.354 76.922C121.426 79.0487 120.672 81.2913 120.092 83.65C119.667 85.4673 119.164 86.7047 118.584 87.362C118.043 87.9807 117.173 88.29 115.974 88.29ZM144.921 88.29C142.717 88.29 140.919 87.42 139.527 85.68C138.173 83.94 137.497 81.6587 137.497 78.836C137.497 75.7427 138.212 72.8233 139.643 70.078C141.073 67.294 142.968 65.0707 145.327 63.408C147.724 61.7067 150.257 60.856 152.925 60.856C153.775 60.856 154.336 61.03 154.607 61.378C154.916 61.6873 155.167 62.2673 155.361 63.118C156.095 62.9633 156.907 62.886 157.797 62.886C158.725 62.886 159.44 63.118 159.943 63.582C160.445 64.046 160.697 64.7033 160.697 65.554C160.697 66.4433 160.503 67.99 160.117 70.194C159.691 72.5527 159.363 74.8147 159.131 76.98C158.899 79.1067 158.783 81.504 158.783 84.172C158.783 85.6413 158.473 86.7047 157.855 87.362C157.275 87.9807 156.308 88.29 154.955 88.29C153.64 88.29 152.654 87.9807 151.997 87.362C151.378 86.7047 151.069 85.6607 151.069 84.23L151.127 83.302C149.928 86.6273 147.859 88.29 144.921 88.29ZM147.183 82.432C148.265 82.432 149.251 81.678 150.141 80.17C151.03 78.662 151.823 75.9747 152.519 72.108L153.621 66.25C152.035 66.2887 150.566 66.9073 149.213 68.106C147.859 69.266 146.777 70.8127 145.965 72.746C145.153 74.6793 144.747 76.7287 144.747 78.894C144.747 80.054 144.959 80.9433 145.385 81.562C145.849 82.142 146.448 82.432 147.183 82.432ZM27.8535 146.29C26.4228 146.29 25.3981 145.981 24.7795 145.362C24.1608 144.705 23.8515 143.487 23.8515 141.708C23.8515 140.509 23.9675 139.059 24.1995 137.358C24.4315 135.657 24.8375 133.085 25.4175 129.644C25.4948 129.18 25.8041 127.305 26.3455 124.018C26.8868 120.693 27.3701 117.213 27.7955 113.578C28.1821 110.485 28.3755 108.165 28.3755 106.618C28.3755 104.878 27.7375 104.008 26.4615 104.008C25.4948 104.008 24.2768 104.53 22.8075 105.574C21.3768 106.579 19.8301 108.203 18.1675 110.446C17.6261 111.181 17.0268 111.548 16.3695 111.548C15.8281 111.548 15.3448 111.297 14.9195 110.794C14.5328 110.253 14.3395 109.653 14.3395 108.996C14.3395 108.339 14.4555 107.72 14.6875 107.14C14.9195 106.521 15.3448 105.787 15.9635 104.936C17.8581 102.345 19.9655 100.354 22.2855 98.962C24.6055 97.5313 27.0415 96.816 29.5935 96.816C31.7201 96.816 33.3055 97.4733 34.3495 98.788C35.4321 100.103 35.9735 102.017 35.9735 104.53C35.9735 106.773 35.6641 110.021 35.0455 114.274C36.9788 108.551 39.4341 104.221 42.4115 101.282C45.3888 98.3047 48.8881 96.816 52.9095 96.816C56.0801 96.816 58.4581 97.7247 60.0435 99.542C61.6675 101.321 62.4795 103.718 62.4795 106.734C62.4795 108.435 62.2281 110.504 61.7255 112.94L58.1875 129.528C57.8008 131.461 57.6075 133.124 57.6075 134.516C57.6075 136.14 57.9748 137.358 58.7095 138.17C59.4828 138.982 60.5461 139.388 61.8995 139.388C63.1755 139.388 64.4128 138.963 65.6115 138.112C66.8488 137.261 68.2988 135.85 69.9615 133.878C70.4255 133.337 70.9475 133.066 71.5275 133.066C72.0301 133.066 72.4168 133.298 72.6875 133.762C72.9968 134.226 73.1515 134.864 73.1515 135.676C73.1515 137.184 72.7841 138.383 72.0495 139.272C70.0388 141.708 68.0475 143.487 66.0755 144.608C64.1035 145.729 62.0348 146.29 59.8695 146.29C56.5828 146.29 54.0115 145.323 52.1555 143.39C50.2995 141.418 49.3715 138.789 49.3715 135.502C49.3715 134.226 49.4681 132.834 49.6615 131.326C49.8935 129.818 50.2608 127.904 50.7635 125.584L53.0835 114.97C53.1608 114.622 53.2961 114.003 53.4895 113.114C53.6828 112.225 53.8375 111.393 53.9535 110.62C54.0695 109.808 54.1275 109.015 54.1275 108.242C54.1275 107.005 53.7795 106.019 53.0835 105.284C52.3875 104.549 51.4015 104.182 50.1255 104.182C47.8055 104.182 45.4855 105.419 43.1655 107.894C40.8455 110.369 38.6995 114.371 36.7275 119.9C34.7555 125.391 33.2088 132.428 32.0875 141.012C31.8168 142.984 31.4108 144.357 30.8695 145.13C30.3668 145.903 29.3615 146.29 27.8535 146.29ZM74.3572 146.29C72.6172 146.29 71.1866 145.497 70.0652 143.912C68.9826 142.288 68.4412 140.277 68.4412 137.88C68.4412 134.98 68.6346 132.331 69.0212 129.934C69.4079 127.498 70.0459 124.927 70.9352 122.22C71.3219 121.06 71.8632 120.229 72.5592 119.726C73.2552 119.223 74.3572 118.972 75.8652 118.972C76.7159 118.972 77.2959 119.107 77.6052 119.378C77.9532 119.649 78.1272 120.055 78.1272 120.596C78.1272 120.905 77.9146 121.949 77.4892 123.728C77.1026 125.159 76.7932 126.454 76.5612 127.614C75.7879 131.674 75.4012 134.381 75.4012 135.734C75.4012 136.546 75.4979 137.126 75.6912 137.474C75.8846 137.783 76.1939 137.938 76.6192 137.938C77.1992 137.938 77.9146 137.358 78.7652 136.198C79.6546 135.038 80.5826 133.279 81.5492 130.92C82.5546 128.561 83.5212 125.661 84.4492 122.22C84.7586 121.06 85.2226 120.229 85.8412 119.726C86.4986 119.223 87.4652 118.972 88.7412 118.972C89.6306 118.972 90.2492 119.088 90.5972 119.32C90.9452 119.513 91.1192 119.9 91.1192 120.48C91.1192 121.447 90.6359 124.095 89.6692 128.426C88.5866 133.375 88.0452 136.43 88.0452 137.59C88.0452 138.325 88.1999 138.905 88.5092 139.33C88.8186 139.717 89.2246 139.91 89.7272 139.91C90.5006 139.91 91.4092 139.446 92.4532 138.518C93.5359 137.551 94.9666 136.005 96.7452 133.878C97.2092 133.337 97.7312 133.066 98.3112 133.066C98.8139 133.066 99.2006 133.298 99.4712 133.762C99.7806 134.226 99.9352 134.864 99.9352 135.676C99.9352 137.223 99.5679 138.421 98.8332 139.272C97.1706 141.321 95.3726 143.003 93.4392 144.318C91.5446 145.633 89.3792 146.29 86.9432 146.29C85.0872 146.29 83.7146 145.575 82.8252 144.144C81.9746 142.713 81.5492 140.703 81.5492 138.112C80.8919 140.741 79.9059 142.771 78.5912 144.202C77.2766 145.594 75.8652 146.29 74.3572 146.29ZM121.1 133.066C121.603 133.066 121.99 133.298 122.26 133.762C122.57 134.226 122.724 134.864 122.724 135.676C122.724 137.223 122.357 138.421 121.622 139.272C119.96 141.321 118.142 143.003 116.17 144.318C114.198 145.633 111.936 146.29 109.384 146.29C101.496 146.29 97.5522 140.741 97.5522 129.644C97.5522 127.943 97.6102 126.222 97.7262 124.482H95.4642C94.3042 124.482 93.5116 124.269 93.0862 123.844C92.6996 123.419 92.5062 122.742 92.5062 121.814C92.5062 119.649 93.3762 118.566 95.1162 118.566H98.4222C99.0796 114.313 100.085 110.427 101.438 106.908C102.792 103.389 104.416 100.586 106.31 98.498C108.244 96.41 110.312 95.366 112.516 95.366C114.14 95.366 115.416 96.0813 116.344 97.512C117.272 98.9427 117.736 100.741 117.736 102.906C117.736 108.899 115.223 114.119 110.196 118.566H116.692C117.311 118.566 117.756 118.701 118.026 118.972C118.297 119.243 118.432 119.745 118.432 120.48C118.432 123.148 116.248 124.482 111.878 124.482H104.802C104.725 126.415 104.686 127.923 104.686 129.006C104.686 133.027 105.15 135.85 106.078 137.474C107.045 139.098 108.553 139.91 110.602 139.91C112.265 139.91 113.734 139.407 115.01 138.402C116.286 137.397 117.794 135.889 119.534 133.878C119.998 133.337 120.52 133.066 121.1 133.066ZM110.95 100.934C110.37 100.934 109.713 101.669 108.978 103.138C108.282 104.569 107.606 106.579 106.948 109.17C106.33 111.722 105.808 114.564 105.382 117.696C107.664 115.724 109.365 113.52 110.486 111.084C111.646 108.609 112.226 106.367 112.226 104.356C112.226 102.075 111.801 100.934 110.95 100.934ZM122.12 146.29C120.65 146.29 119.606 145.517 118.988 143.97C118.408 142.423 118.118 139.949 118.118 136.546C118.118 131.519 118.833 126.744 120.264 122.22C120.612 121.099 121.172 120.287 121.946 119.784C122.758 119.243 123.879 118.972 125.31 118.972C126.083 118.972 126.624 119.069 126.934 119.262C127.243 119.455 127.398 119.823 127.398 120.364C127.398 120.983 127.108 122.375 126.528 124.54C126.141 126.087 125.832 127.44 125.6 128.6C125.368 129.76 125.174 131.191 125.02 132.892C126.296 129.567 127.726 126.86 129.312 124.772C130.897 122.684 132.444 121.195 133.952 120.306C135.498 119.417 136.91 118.972 138.186 118.972C140.699 118.972 141.956 120.229 141.956 122.742C141.956 123.245 141.782 124.463 141.434 126.396C141.124 127.943 140.97 128.909 140.97 129.296C140.97 130.649 141.453 131.326 142.42 131.326C143.502 131.326 144.894 130.475 146.596 128.774C147.098 128.271 147.62 128.02 148.162 128.02C148.664 128.02 149.051 128.252 149.322 128.716C149.631 129.141 149.786 129.721 149.786 130.456C149.786 131.887 149.399 133.008 148.626 133.82C147.543 134.941 146.267 135.908 144.798 136.72C143.367 137.493 141.84 137.88 140.216 137.88C138.166 137.88 136.6 137.358 135.518 136.314C134.474 135.27 133.952 133.859 133.952 132.08C133.952 131.5 134.01 130.92 134.126 130.34C134.203 129.567 134.242 129.045 134.242 128.774C134.242 128.155 134.029 127.846 133.604 127.846C133.024 127.846 132.25 128.503 131.284 129.818C130.356 131.094 129.428 132.795 128.5 134.922C127.572 137.049 126.818 139.291 126.238 141.65C125.812 143.467 125.31 144.705 124.73 145.362C124.188 145.981 123.318 146.29 122.12 146.29ZM151.994 115.144C150.37 115.144 149.152 114.777 148.34 114.042C147.528 113.269 147.122 112.205 147.122 110.852C147.122 109.499 147.644 108.377 148.688 107.488C149.771 106.56 151.105 106.096 152.69 106.096C154.121 106.096 155.281 106.444 156.17 107.14C157.06 107.836 157.504 108.822 157.504 110.098C157.504 111.645 157.002 112.882 155.996 113.81C154.991 114.699 153.657 115.144 151.994 115.144ZM151.53 146.29C149.017 146.29 147.18 145.401 146.02 143.622C144.899 141.843 144.338 139.485 144.338 136.546C144.338 134.806 144.551 132.583 144.976 129.876C145.44 127.131 146.02 124.579 146.716 122.22C147.064 120.983 147.528 120.132 148.108 119.668C148.688 119.204 149.616 118.972 150.892 118.972C152.864 118.972 153.85 119.629 153.85 120.944C153.85 121.911 153.483 124.153 152.748 127.672C151.82 131.925 151.356 134.806 151.356 136.314C151.356 137.474 151.511 138.363 151.82 138.982C152.13 139.601 152.652 139.91 153.386 139.91C154.082 139.91 154.952 139.427 155.996 138.46C157.04 137.493 158.432 135.966 160.172 133.878C160.636 133.337 161.158 133.066 161.738 133.066C162.241 133.066 162.628 133.298 162.898 133.762C163.208 134.226 163.362 134.864 163.362 135.676C163.362 137.223 162.995 138.421 162.26 139.272C158.432 143.951 154.856 146.29 151.53 146.29ZM182.102 126.918C182.952 126.918 183.668 127.227 184.248 127.846C184.866 128.426 185.176 129.161 185.176 130.05C185.176 130.553 185.06 131.094 184.828 131.674C184.209 133.105 183.339 134.303 182.218 135.27C181.096 136.237 179.859 136.72 178.506 136.72C177.423 136.72 176.495 136.333 175.722 135.56C174.987 134.787 174.62 133.743 174.62 132.428C174.62 131.693 174.658 130.901 174.736 130.05C174.813 129.431 174.852 129.006 174.852 128.774C174.852 128.465 174.774 128.233 174.62 128.078C174.504 127.923 174.349 127.846 174.156 127.846C173.614 127.846 172.88 128.503 171.952 129.818C171.024 131.094 170.096 132.795 169.168 134.922C168.24 137.049 167.486 139.291 166.906 141.65C166.48 143.506 165.997 144.743 165.456 145.362C164.914 145.981 164.025 146.29 162.788 146.29C161.318 146.29 160.274 145.517 159.656 143.97C159.076 142.423 158.786 139.949 158.786 136.546C158.786 131.519 159.501 126.744 160.932 122.22C161.28 121.099 161.84 120.287 162.614 119.784C163.426 119.243 164.547 118.972 165.978 118.972C166.751 118.972 167.292 119.069 167.602 119.262C167.911 119.455 168.066 119.823 168.066 120.364C168.066 120.983 167.776 122.375 167.196 124.54C166.809 126.087 166.5 127.44 166.268 128.6C166.036 129.76 165.842 131.191 165.688 132.892C166.964 129.567 168.394 126.86 169.98 124.772C171.565 122.684 173.112 121.195 174.62 120.306C176.128 119.417 177.5 118.972 178.738 118.972C179.859 118.972 180.71 119.301 181.29 119.958C181.908 120.577 182.218 121.505 182.218 122.742C182.218 123.477 182.005 124.869 181.58 126.918H182.102Z" fill="white"/>
</svg>
